<svg width="1024" height="576" xmlns="http://www.w3.org/2000/svg" xmlns:xlink="http://www.w3.org/1999/xlink" overflow="hidden"><defs><filter id="fx0" x="-10%" y="-10%" width="120%" height="120%" filterUnits="userSpaceOnUse" primitiveUnits="userSpaceOnUse"><feComponentTransfer color-interpolation-filters="sRGB"><feFuncR type="discrete" tableValues="0 0"/><feFuncG type="discrete" tableValues="0 0"/><feFuncB type="discrete" tableValues="0 0"/><feFuncA type="linear" slope="0.4" intercept="0"/></feComponentTransfer><feGaussianBlur stdDeviation="1.77778 1.77778"/></filter><filter id="fx1" x="-10%" y="-10%" width="120%" height="120%" filterUnits="userSpaceOnUse" primitiveUnits="userSpaceOnUse"><feComponentTransfer color-interpolation-filters="sRGB"><feFuncR type="discrete" tableValues="0 0"/><feFuncG type="discrete" tableValues="0 0"/><feFuncB type="discrete" tableValues="0 0"/><feFuncA type="linear" slope="0.4" intercept="0"/></feComponentTransfer><feGaussianBlur stdDeviation="1.77778 1.77778"/></filter><filter id="fx2" x="-10%" y="-10%" width="120%" height="120%" filterUnits="userSpaceOnUse" primitiveUnits="userSpaceOnUse"><feComponentTransfer color-interpolation-filters="sRGB"><feFuncR type="discrete" tableValues="0 0"/><feFuncG type="discrete" tableValues="0 0"/><feFuncB type="discrete" tableValues="0 0"/><feFuncA type="linear" slope="0.4" intercept="0"/></feComponentTransfer><feGaussianBlur stdDeviation="1.77778 1.77778"/></filter><filter id="fx3" x="-10%" y="-10%" width="120%" height="120%" filterUnits="userSpaceOnUse" primitiveUnits="userSpaceOnUse"><feComponentTransfer color-interpolation-filters="sRGB"><feFuncR type="discrete" tableValues="0 0"/><feFuncG type="discrete" tableValues="0 0"/><feFuncB type="discrete" tableValues="0 0"/><feFuncA type="linear" slope="0.4" intercept="0"/></feComponentTransfer><feGaussianBlur stdDeviation="1.77778 1.77778"/></filter><filter id="fx4" x="-10%" y="-10%" width="120%" height="120%" filterUnits="userSpaceOnUse" primitiveUnits="userSpaceOnUse"><feComponentTransfer color-interpolation-filters="sRGB"><feFuncR type="discrete" tableValues="0 0"/><feFuncG type="discrete" tableValues="0 0"/><feFuncB type="discrete" tableValues="0 0"/><feFuncA type="linear" slope="0.4" intercept="0"/></feComponentTransfer><feGaussianBlur stdDeviation="1.77778 1.77778"/></filter><filter id="fx5" x="-10%" y="-10%" width="120%" height="120%" filterUnits="userSpaceOnUse" primitiveUnits="userSpaceOnUse"><feComponentTransfer color-interpolation-filters="sRGB"><feFuncR type="discrete" tableValues="0 0"/><feFuncG type="discrete" tableValues="0 0"/><feFuncB type="discrete" tableValues="0 0"/><feFuncA type="linear" slope="0.4" intercept="0"/></feComponentTransfer><feGaussianBlur stdDeviation="1.77778 1.77778"/></filter><filter id="fx6" x="-10%" y="-10%" width="120%" height="120%" filterUnits="userSpaceOnUse" primitiveUnits="userSpaceOnUse"><feComponentTransfer color-interpolation-filters="sRGB"><feFuncR type="discrete" tableValues="0 0"/><feFuncG type="discrete" tableValues="0 0"/><feFuncB type="discrete" tableValues="0 0"/><feFuncA type="linear" slope="0.4" intercept="0"/></feComponentTransfer><feGaussianBlur stdDeviation="1.77778 1.77778"/></filter><filter id="fx7" x="-10%" y="-10%" width="120%" height="120%" filterUnits="userSpaceOnUse" primitiveUnits="userSpaceOnUse"><feComponentTransfer color-interpolation-filters="sRGB"><feFuncR type="discrete" tableValues="0 0"/><feFuncG type="discrete" tableValues="0 0"/><feFuncB type="discrete" tableValues="0 0"/><feFuncA type="linear" slope="0.4" intercept="0"/></feComponentTransfer><feGaussianBlur stdDeviation="1.77778 1.77778"/></filter><filter id="fx8" x="-10%" y="-10%" width="120%" height="120%" filterUnits="userSpaceOnUse" primitiveUnits="userSpaceOnUse"><feComponentTransfer color-interpolation-filters="sRGB"><feFuncR type="discrete" tableValues="0 0"/><feFuncG type="discrete" tableValues="0 0"/><feFuncB type="discrete" tableValues="0 0"/><feFuncA type="linear" slope="0.4" intercept="0"/></feComponentTransfer><feGaussianBlur stdDeviation="1.77778 1.77778"/></filter><filter id="fx9" x="-10%" y="-10%" width="120%" height="120%" filterUnits="userSpaceOnUse" primitiveUnits="userSpaceOnUse"><feComponentTransfer color-interpolation-filters="sRGB"><feFuncR type="discrete" tableValues="0 0"/><feFuncG type="discrete" tableValues="0 0"/><feFuncB type="discrete" tableValues="0 0"/><feFuncA type="linear" slope="0.4" intercept="0"/></feComponentTransfer><feGaussianBlur stdDeviation="1.77778 1.77778"/></filter><filter id="fx10" x="-10%" y="-10%" width="120%" height="120%" filterUnits="userSpaceOnUse" primitiveUnits="userSpaceOnUse"><feComponentTransfer color-interpolation-filters="sRGB"><feFuncR type="discrete" tableValues="0 0"/><feFuncG type="discrete" tableValues="0 0"/><feFuncB type="discrete" tableValues="0 0"/><feFuncA type="linear" slope="0.4" intercept="0"/></feComponentTransfer><feGaussianBlur stdDeviation="1.77778 1.77778"/></filter><filter id="fx11" x="-10%" y="-10%" width="120%" height="120%" filterUnits="userSpaceOnUse" primitiveUnits="userSpaceOnUse"><feComponentTransfer color-interpolation-filters="sRGB"><feFuncR type="discrete" tableValues="0 0"/><feFuncG type="discrete" tableValues="0 0"/><feFuncB type="discrete" tableValues="0 0"/><feFuncA type="linear" slope="0.4" intercept="0"/></feComponentTransfer><feGaussianBlur stdDeviation="1.77778 1.77778"/></filter><clipPath id="clip12"><rect x="0" y="0" width="1024" height="576"/></clipPath><clipPath id="clip13"><rect x="-2" y="-2" width="545" height="79"/></clipPath><clipPath id="clip14"><rect x="0" y="0" width="543" height="76"/></clipPath><clipPath id="clip15"><rect x="-2" y="-2" width="170" height="122"/></clipPath><clipPath id="clip16"><rect x="0" y="0" width="167" height="119"/></clipPath><clipPath id="clip17"><rect x="-2" y="-2" width="170" height="122"/></clipPath><clipPath id="clip18"><rect x="0" y="0" width="167" height="119"/></clipPath><clipPath id="clip19"><rect x="-2" y="-2" width="335" height="122"/></clipPath><clipPath id="clip20"><rect x="0" y="0" width="332" height="119"/></clipPath><clipPath id="clip21"><rect x="-2" y="-2" width="170" height="122"/></clipPath><clipPath id="clip22"><rect x="0" y="0" width="168" height="119"/></clipPath><clipPath id="clip23"><rect x="-2" y="-2" width="170" height="122"/></clipPath><clipPath id="clip24"><rect x="0" y="0" width="168" height="119"/></clipPath><clipPath id="clip25"><rect x="-2" y="-2" width="263" height="176"/></clipPath><clipPath id="clip26"><rect x="0" y="0" width="260" height="174"/></clipPath><clipPath id="clip27"><rect x="-2" y="-2" width="240" height="176"/></clipPath><clipPath id="clip28"><rect x="0" y="0" width="237" height="174"/></clipPath><clipPath id="clip29"><rect x="-2" y="-2" width="211" height="176"/></clipPath><clipPath id="clip30"><rect x="0" y="0" width="209" height="174"/></clipPath><clipPath id="clip31"><rect x="-2" y="-2" width="314" height="366"/></clipPath><clipPath id="clip32"><rect x="0" y="0" width="312" height="363"/></clipPath><clipPath id="clip33"><rect x="-2" y="-2" width="329" height="184"/></clipPath><clipPath id="clip34"><rect x="0" y="0" width="325" height="182"/></clipPath><clipPath id="clip35"><rect x="-2" y="-2" width="384" height="184"/></clipPath><clipPath id="clip36"><rect x="0" y="0" width="381" height="182"/></clipPath></defs><g clip-path="url(#clip12)"><rect x="0" y="0" width="1024" height="576" fill="#F7F4FF"/><g clip-path="url(#clip13)" filter="url(#fx0)" transform="translate(283 7)"><g clip-path="url(#clip14)"><path d="M6.82843 17.162C6.82843 11.4549 11.4549 6.82843 17.162 6.82843L525.495 6.82843C531.202 6.82843 535.828 11.4549 535.828 17.162L535.828 58.4948C535.828 64.2019 531.202 68.8284 525.495 68.8284L17.162 68.8284C11.4549 68.8284 6.82843 64.2019 6.82843 58.4948Z" fill="#333333" fill-rule="evenodd"/></g></g><path d="M287 21.3336C287 15.6265 291.626 11 297.334 11L805.666 11C811.373 11 816 15.6265 816 21.3336L816 62.6664C816 68.3735 811.373 73 805.666 73L297.334 73C291.626 73 287 68.3735 287 62.6664Z" fill="#333333" fill-rule="evenodd"/><g clip-path="url(#clip15)" filter="url(#fx1)" transform="translate(6 89)"><g clip-path="url(#clip16)"><path d="M6.82843 17.2234C6.82843 11.4824 11.4824 6.82843 17.2234 6.82843L149.433 6.82843C155.174 6.82843 159.828 11.4824 159.828 17.2234L159.828 101.433C159.828 107.174 155.174 111.828 149.433 111.828L17.2234 111.828C11.4824 111.828 6.82843 107.174 6.82843 101.433Z" fill="#333333" fill-rule="evenodd"/></g></g><path d="M10 103.395C10 97.654 14.654 93 20.3949 93L152.605 93C158.346 93 163 97.654 163 103.395L163 187.605C163 193.346 158.346 198 152.605 198L20.3949 198C14.654 198 10 193.346 10 187.605Z" fill="#333333" fill-rule="evenodd"/><g clip-path="url(#clip17)" filter="url(#fx2)" transform="translate(178 89)"><g clip-path="url(#clip18)"><path d="M6.82843 17.2234C6.82843 11.4824 11.4824 6.82843 17.2234 6.82843L149.433 6.82843C155.174 6.82843 159.828 11.4824 159.828 17.2234L159.828 101.433C159.828 107.174 155.174 111.828 149.433 111.828L17.2234 111.828C11.4824 111.828 6.82843 107.174 6.82843 101.433Z" fill="#333333" fill-rule="evenodd"/></g></g><path d="M182 103.395C182 97.654 186.654 93 192.395 93L324.605 93C330.346 93 335 97.654 335 103.395L335 187.605C335 193.346 330.346 198 324.605 198L192.395 198C186.654 198 182 193.346 182 187.605Z" fill="#333333" fill-rule="evenodd"/><g clip-path="url(#clip19)" filter="url(#fx3)" transform="translate(692 89)"><g clip-path="url(#clip20)"><path d="M6.82843 17.2233C6.82843 11.4824 11.4823 6.82843 17.2232 6.82843L314.434 6.82843C320.174 6.82843 324.828 11.4824 324.828 17.2233L324.828 101.434C324.828 107.174 320.174 111.828 314.434 111.828L17.2232 111.828C11.4823 111.828 6.82843 107.174 6.82843 101.434Z" fill="#FFFFFF" fill-rule="evenodd"/></g></g><path d="M696 103.395C696 97.6539 700.654 93 706.395 93L1003.61 93C1009.35 93 1014 97.6539 1014 103.395L1014 187.605C1014 193.346 1009.35 198 1003.61 198L706.395 198C700.654 198 696 193.346 696 187.605Z" fill="#FFFFFF" fill-rule="evenodd"/><g clip-path="url(#clip21)" filter="url(#fx4)" transform="translate(346 89)"><g clip-path="url(#clip22)"><path d="M6.82843 17.2234C6.82843 11.4824 11.4824 6.82843 17.2234 6.82843L150.433 6.82843C156.174 6.82843 160.828 11.4824 160.828 17.2234L160.828 101.433C160.828 107.174 156.174 111.828 150.433 111.828L17.2234 111.828C11.4824 111.828 6.82843 107.174 6.82843 101.433Z" fill="#333333" fill-rule="evenodd"/></g></g><path d="M350 103.395C350 97.654 354.654 93 360.395 93L493.605 93C499.346 93 504 97.654 504 103.395L504 187.605C504 193.346 499.346 198 493.605 198L360.395 198C354.654 198 350 193.346 350 187.605Z" fill="#333333" fill-rule="evenodd"/><g clip-path="url(#clip23)" filter="url(#fx5)" transform="translate(519 89)"><g clip-path="url(#clip24)"><path d="M6.82843 17.2234C6.82843 11.4824 11.4824 6.82843 17.2234 6.82843L150.433 6.82843C156.174 6.82843 160.828 11.4824 160.828 17.2234L160.828 101.433C160.828 107.174 156.174 111.828 150.433 111.828L17.2234 111.828C11.4824 111.828 6.82843 107.174 6.82843 101.433Z" fill="#333333" fill-rule="evenodd"/></g></g><path d="M523 103.395C523 97.654 527.654 93 533.395 93L666.605 93C672.346 93 677 97.654 677 103.395L677 187.605C677 193.346 672.346 198 666.605 198L533.395 198C527.654 198 523 193.346 523 187.605Z" fill="#333333" fill-rule="evenodd"/><g clip-path="url(#clip25)" filter="url(#fx6)" transform="translate(6 214)"><g clip-path="url(#clip26)"><path d="M6.82843 22.6683C6.82843 13.9202 13.9202 6.82843 22.6683 6.82843L236.989 6.82843C245.737 6.82843 252.828 13.9202 252.828 22.6683L252.828 150.989C252.828 159.737 245.737 166.828 236.989 166.828L22.6683 166.828C13.9202 166.828 6.82843 159.737 6.82843 150.989Z" fill="#FFFFFF" fill-rule="evenodd"/></g></g><path d="M10 233.84C10 225.092 17.0918 218 25.8399 218L240.16 218C248.908 218 256 225.092 256 233.84L256 362.16C256 370.908 248.908 378 240.16 378L25.8399 378C17.0918 378 10 370.908 10 362.16Z" fill="#FFFFFF" fill-rule="evenodd"/><g clip-path="url(#clip27)" filter="url(#fx7)" transform="translate(266 214)"><g clip-path="url(#clip28)"><path d="M6.82843 22.6684C6.82843 13.9202 13.9202 6.82843 22.6684 6.82843L213.988 6.82843C222.737 6.82843 229.828 13.9202 229.828 22.6684L229.828 150.988C229.828 159.737 222.737 166.828 213.988 166.828L22.6684 166.828C13.9202 166.828 6.82843 159.737 6.82843 150.988Z" fill="#FFFFFF" fill-rule="evenodd"/></g></g><path d="M270 233.84C270 225.092 277.092 218 285.84 218L477.16 218C485.908 218 493 225.092 493 233.84L493 362.16C493 370.908 485.908 378 477.16 378L285.84 378C277.092 378 270 370.908 270 362.16Z" fill="#FFFFFF" fill-rule="evenodd"/><g clip-path="url(#clip29)" filter="url(#fx8)" transform="translate(503 214)"><g clip-path="url(#clip30)"><path d="M6.82843 22.6684C6.82843 13.9202 13.9202 6.82843 22.6683 6.82843L185.989 6.82843C194.737 6.82843 201.828 13.9202 201.828 22.6684L201.828 150.988C201.828 159.737 194.737 166.828 185.989 166.828L22.6683 166.828C13.9202 166.828 6.82843 159.737 6.82843 150.988Z" fill="#FFFFFF" fill-rule="evenodd"/></g></g><path d="M507 233.84C507 225.092 514.092 218 522.84 218L686.16 218C694.908 218 702 225.092 702 233.84L702 362.16C702 370.908 694.908 378 686.16 378L522.84 378C514.092 378 507 370.908 507 362.16Z" fill="#FFFFFF" fill-rule="evenodd"/><g clip-path="url(#clip31)" filter="url(#fx9)" transform="translate(712 214)"><g clip-path="url(#clip32)"><path d="M6.82843 36.3305C6.82843 20.0369 20.0369 6.82843 36.3305 6.82843L275.326 6.82843C291.62 6.82843 304.828 20.0369 304.828 36.3305L304.828 326.326C304.828 342.62 291.62 355.828 275.326 355.828L36.3305 355.828C20.0369 355.828 6.82843 342.62 6.82843 326.326Z" fill="#FFFFFF" fill-rule="evenodd"/></g></g><path d="M716 247.502C716 231.209 729.208 218 745.502 218L984.498 218C1000.79 218 1014 231.209 1014 247.502L1014 537.498C1014 553.792 1000.79 567 984.498 567L745.502 567C729.208 567 716 553.792 716 537.498Z" fill="#FFFFFF" fill-rule="evenodd"/><g clip-path="url(#clip33)" filter="url(#fx10)" transform="translate(7 395)"><g clip-path="url(#clip34)"><path d="M6.82843 23.4603C6.82843 14.2748 14.2748 6.82843 23.4603 6.82843L301.197 6.82843C310.382 6.82843 317.828 14.2748 317.828 23.4603L317.828 158.197C317.828 167.382 310.382 174.828 301.197 174.828L23.4603 174.828C14.2748 174.828 6.82843 167.382 6.82843 158.197Z" fill="#FFFFFF" fill-rule="evenodd"/></g></g><path d="M11 415.632C11 406.446 18.4464 399 27.6319 399L305.368 399C314.554 399 322 406.446 322 415.632L322 550.368C322 559.554 314.554 567 305.368 567L27.6319 567C18.4464 567 11 559.554 11 550.368Z" fill="#FFFFFF" fill-rule="evenodd"/><g clip-path="url(#clip35)" filter="url(#fx11)" transform="translate(331 395)"><g clip-path="url(#clip36)"><path d="M6.82843 23.4603C6.82843 14.2748 14.2747 6.82843 23.4602 6.82843L357.197 6.82843C366.382 6.82843 373.828 14.2748 373.828 23.4603L373.828 158.197C373.828 167.382 366.382 174.828 357.197 174.828L23.4602 174.828C14.2747 174.828 6.82843 167.382 6.82843 158.197Z" fill="#FFFFFF" fill-rule="evenodd"/></g></g><path d="M335 415.632C335 406.446 342.446 399 351.632 399L685.368 399C694.554 399 702 406.446 702 415.632L702 550.368C702 559.554 694.554 567 685.368 567L351.632 567C342.446 567 335 559.554 335 550.368Z" fill="#FFFFFF" fill-rule="evenodd"/></g></svg>